<?xml version="1.0" encoding="UTF-8"?><svg id="a" xmlns="http://www.w3.org/2000/svg" viewBox="0 0 647.77 197.1"><path d="M3.31,193.79h163.04v-109.02c-.11-44.92-36.7-81.46-81.57-81.46S3.31,39.85,3.31,84.77v109.02Z" fill="#f9de3a"/><rect x="12.86" y="161.71" width="145.55" height="24.71" fill="#fff"/><rect x="36.27" y="136.76" width="100.41" height="24.02" fill="#fff"/><circle cx="85.04" cy="85.42" r="75.82" fill="#fff"/><rect x="71.84" y="124.27" width="24.71" height="10.05" fill="#f9de3a"/><path d="M84.77,0C38.03,0,0,38.03,0,84.77v112.33h169.65v-112.33C169.54,38.03,131.46,0,84.77,0ZM166.34,193.79H3.31v-109.02C3.31,39.85,39.85,3.31,84.77,3.31s81.47,36.55,81.57,81.46v109.02Z"/><path d="M138.58,169.19c0-1.85-.76-2.72-2.72-2.72h-1.09v5.56h1.2c1.74-.11,2.61-.98,2.61-2.83h0Z"/><path d="M19.41,166.47h-1.2v6.75h1.2c1.96,0,2.72-.87,2.72-3.38s-.65-3.38-2.72-3.38h0Z"/><path d="M67.89,165.82c-1.53,0-2.07.76-2.07,2.94v9.7c0,2.07.65,2.94,2.07,2.94s2.07-.87,2.07-2.94v-9.7c0-2.07-.65-2.94-2.07-2.94Z"/><path d="M135.97,175.08h-1.09v5.88h1.31c1.96,0,2.72-.76,2.72-2.94-.11-2.18-.87-2.94-2.94-2.94Z"/><path d="M153.07,169.19c0-1.85-.76-2.72-2.72-2.72h-1.09v5.56h1.2c1.74-.11,2.61-.98,2.61-2.83h0Z"/><path d="M153.4,178.02c-.11-2.18-.87-2.94-2.94-2.94h-1.09v5.88h1.31c1.96,0,2.72-.76,2.72-2.94Z"/><path d="M84.88,8.41C42.5,8.41,7.97,42.94,7.97,85.31c0,19.87,7.59,38.02,20.03,51.68-.97,2.49-1.62,5.2-1.62,8.01H8.52v44.23h152.73v-44.23h-17.76c0-2.83-.54-5.56-1.63-8.06h0c12.39-13.66,19.94-31.78,19.94-51.63,0-42.38-34.53-76.91-76.91-76.91h-.01ZM19.41,176.38h-1.2v7.73h-3.59v-21.02h5.01c4.36,0,6.1,1.96,6.1,6.54.11,4.79-1.85,6.75-6.32,6.75h0ZM145.77,163.2h4.68c4.14,0,6.1,1.96,6.1,5.56,0,2.94-1.09,4.14-3.16,4.58v.11c2.51.44,3.38,2.18,3.38,4.9.11,4.03-1.85,5.88-5.88,5.88h-5.12v-21.02h0ZM76.16,129.78v-2.85l-.87.22v-1.2l1.2-.33h.98v5.77h.98v1.09h-3.16v-.98h.87v-1.73h0ZM81.39,130.09c-.87,0-1.42-.54-1.42-1.74v-.76c0-1.2.65-1.96,1.96-1.96h.11c1.31,0,1.96.65,1.96,2.07v2.92c0,.39-.01.7-.22,1,0,.03-.03.05-.04.08-.24.7-.87,1.01-1.7,1.01h-.11c-.82,0-1.33-.25-1.62-.74-.08-.14-.14-.31-.2-.49,0-.03-.03-.05-.03-.08-.05-.11-.08-.25-.1-.38s-.01-.27-.01-.38v-.11h1.31v.22c0,.11,0,.2.02.29.02.12.04.22.08.31.03.09.07.17.11.24,0,0,0,.02.01.03.05.05.11.08.18.1s.15,0,.26,0c.09,0,.24,0,.36-.08.02,0,.06,0,.08-.03.22-.11.33-.44.33-.87v-1.85c-.11.76-.54,1.2-1.31,1.2h-.01ZM84.88,54.38c17.1,0,31.16,14.05,31.16,31.16s-13.94,31.16-31.16,31.16-31.16-13.94-31.16-31.16,14.05-31.16,31.16-31.16ZM94.03,128.02c.87,0,1.31.44,1.42,1.31v1.42c0,1.31-.54,2.07-1.85,2.07h-.11c-1.09,0-1.74-.54-1.85-1.53v-.98h1.31v.69c.01.51.23.72.65.72s.65-.33.65-.87v-1.2h0c-.11-.43-.33-.54-.65-.54s-.65.11-.65.54h-1.31v-3.81h3.7v1.09h-2.51v1.85c.11-.44.54-.76,1.2-.76h0ZM117.34,138.26v3.38h-4.9v5.34h4.25v3.38h-4.25v5.66h5.12v3.38h-8.28v-4.58h-3.27l-.89,3.56-.09.37-.11.65h-3.49v-.22l.04-.15h0l.05-.18.87-3.4.24-.95.02-.06.3-1.12v-.02l1.31-5.23.03-.11.3-1.09v-.05l1.53-5.94.02-.08.02-.08.26-1.03.03-.12.07-.27.26-1.03h10.57-.01ZM65.28,153.9v-9.86c0-.82.06-1.51.18-2.13.03-.16.07-.32.11-.47.01-.04.02-.09.03-.13.05-.16.11-.35.16-.53.03-.09.06-.18.09-.26.03-.07.05-.14.08-.19h0s.01-.02.02-.03c.32-.66.73-1.19,1.24-1.61.89-.65,2.07-.98,3.54-.98h.22c1.73,0,3.05.46,3.97,1.38.91.84,1.43,2.1,1.57,3.78,0,.06.02.12.02.18v10.02c0,.76,0,1.42-.11,1.96-.01.04-.01.08-.02.12-.04.17-.07.33-.09.47-.03.17-.05.33-.11.5h0c-.16.57-.39,1.07-.68,1.49s-.64.77-1.07,1.05c-.21.14-.44.26-.68.37-.18.08-.38.15-.58.2-.41.12-.86.19-1.35.23-.24.02-.5.03-.77.03h-.33c-.33,0-.63-.03-.93-.07-.21-.04-.43-.08-.64-.12-.13-.03-.25-.06-.38-.09h0c-.45-.13-.88-.3-1.24-.54-1.37-.89-2.09-2.51-2.24-4.78h-.01ZM101.42,138.26l-.02.11-.39,2.82-.02.12-.22,1.19h0l-.87,5.56v.07l-.2,1.05v.08l-.78,4.9-.02.11-.19,1.04v.05l-.54,3.81h-5.24l-.43-2.92v-.02l-.19-.94-.03-.15-.76-4.58h0l-.1-.98v-.11l-.77-5.08v-.04l-.12-1.09v-.06l-.73-4.84h3.45l.62,4.42v.04l.04.23.09.93.02.16.73,4.89.02.12.02.11.09.87.02.22.65,4.53v.05l.08.54.03.22h.11l.11-.76.02-.11.64-4.68.03-.3.08-.79.03-.23.73-5.22.05-.27h-.02l.19-1.04.03-.23.51-3.8h3.25ZM81.64,138.26c.64.04,1.29.06,1.94.08v17.46h6.21v3.27h-9.8v-14.6h0v-6.21h1.66-.01ZM134.3,127.26c.11.08.23.17.34.25-.11-.08-.23-.17-.34-.25ZM87.82,125.62h.11c1.2,0,1.85.65,1.85,2.07h-1.2v-.22c0-.65-.22-.87-.76-.87s-.65.22-.65.98v.11h0v1.85c.11-.87.54-1.2,1.31-1.2.98,0,1.42.54,1.42,1.74v.65c0,.22,0,.44-.11.65,0,.03-.02.04-.03.07-.23.82-.77,1.24-1.82,1.24h-.11c-.84,0-1.46-.31-1.7-1.01,0-.03-.03-.05-.04-.08-.1-.3-.19-.61-.21-1.01v-2.91h0c0-1.42.65-2.07,1.96-2.07h-.02ZM34.99,127.69c.29-.19.5-.39.77-.58-.27.19-.48.39-.77.58ZM32.37,184.23h-3.59v-21.02h3.59v21.02ZM46.64,169.74h-3.59v-.98c0-2.29-.54-3.05-1.85-3.05s-1.85.65-1.85,2.29c0,1.96.76,2.51,2.94,3.92,2.94,1.85,4.36,2.72,4.36,6.64-.22,4.14-1.63,5.99-5.45,5.99h-.33c-3.7,0-5.23-2.07-5.23-6.21v-.98h3.59v1.31c0,2.18.54,2.83,1.96,2.83,1.53,0,1.85-.65,1.85-2.61,0-2.07-.33-2.4-2.94-4.03-2.72-1.74-4.25-2.94-4.25-6.54,0-3.81,1.85-5.56,5.34-5.56h.22c3.59,0,5.23,2.29,5.23,6.21v.76h0ZM44.36,159.5h-.33c-3.7,0-5.23-2.07-5.23-6.21v-.98h3.59v1.31c0,2.18.54,2.83,1.96,2.83,1.53,0,1.85-.65,1.85-2.61,0-1.36-.18-1.94-.98-2.67-.1-.09-.2-.18-.32-.28-.44-.33-.98-.65-1.74-1.09-1.93-1.18-3.33-2.16-3.9-3.96,0-.02-.02-.05-.03-.07-.22-.65-.33-1.53-.33-2.51,0-1.19.21-2.26.54-3.02v-.03c.1-.32.31-.63.52-.84,0,0,0-.02.02-.03.02-.02.04-.03.05-.05.87-1.05,2.27-1.58,4.09-1.58h.22c.22,0,.44,0,.65,0,.16,0,.32.04.49.07.06,0,.11,0,.17.02h0c.71.11,1.31.35,1.81.72.25.18.48.4.69.64.19.23.36.48.51.76,0,.02.03.04.04.06.14.25.26.51.37.8.23.62.39,1.35.46,2.17,0,.16.02.33.03.5,0,.15.02.3.02.45v.65h-3.49v-.87c0-1.45-.22-2.29-.75-2.71-.31-.31-.74-.45-1.32-.45-.65,0-1.2.22-1.53.65-.03.03-.06.08-.09.12-.16.24-.24.6-.24.97v.11h0v.54h0c0,.49.05.89.15,1.24.32,1.05,1.15,1.62,2.79,2.68,2.61,1.63,4.03,2.51,4.36,5.45v1.31c.11,4.03-1.42,5.88-5.12,5.88l.02.02ZM55.79,166.58v17.65h-3.59v-17.65h-3.7v-3.38h10.89v3.38h-3.6ZM60.26,158.19l-.11.98h-5.45l-.54-3.38h0l-.21-1.28v-.03l-.02-.12h.02l-.87-5.23v-.02l-.21-1.22v-.08l-.88-5.84v-.04l-.19-1.22-.03-.2-.31-2.4h3.5l.62,4.36s.06.03.08.04l.03.18v.07s-.07-.04-.11-.07l.02.12.03.17.17,1.02v.03l.76,5.53.02.11.2,1.17v.02l.66,4.68h.22l.54-4.03v-.09l.11-1v-.02l.65-4.77v-.13l.11-.96v-.07l.76-5.26.02-.13.09-.75h3.36l-.14.79-.02.09h0v.02l-.03.18h0l-.2.98-.02.11-.76,5.2v.03l-.2.96-.03.13-.76,4.68h.02l-.02.11-.17.86h-.02l-.02.12-.62,4.26-.02.12v.2s0,.98,0,.98l-.02.04ZM73.66,178.13h-.11c0,4.25-1.63,6.43-5.45,6.43h-.33c-3.81,0-5.45-2.18-5.45-6.43v-8.93c0-4.36,1.85-6.43,5.56-6.43h.22c3.7,0,5.56,2.07,5.56,6.43v8.93ZM87.06,184.23h-9.8v-21.02h3.59v17.54h6.21v3.49h0ZM97.62,184.12v.11l-4.25-9.59v9.59h-3.59v-21.02h3.59v8.93l4.25-8.93h3.7l-4.68,9.8,4.9,11.11h-3.92ZM113.96,184.23h-9.8v-21.02h3.59v17.54h6.21v3.49h0ZM127.47,178.23h-.11c0,4.25-1.53,6.43-5.34,6.43h-.33c-3.81,0-5.45-2.18-5.45-6.43v-14.92h3.59v15.25c0,2.07.65,2.94,2.18,2.94s2.07-.87,2.07-2.94v-15.25h3.38v14.92h.01ZM126.27,150.78h-1.85v8.39h-3.49v-20.37h0v-.44h0v-.22h5.01c1.74,0,3.05.33,4.03.98.02,0,.03.03.05.04.3.21.51.42.72.73h0c.86,1.1,1.3,2.51,1.3,4.46v.33c0,.54,0,.98-.11,1.41h0c-.22,1.96-1.09,3.16-2.29,3.92l2.51,9.04h-3.7l-2.18-8.28h0ZM142.07,168.76c0,2.94-1.09,4.14-3.16,4.58v.11c2.51.44,3.38,2.18,3.38,4.9.11,4.03-1.85,5.88-5.88,5.88h-5.12v-21.02h4.68c4.14,0,6.1,1.96,6.1,5.56h0ZM141.46,135.73c-.74-1.45-1.57-2.71-2.51-3.96h0c10.69-12.47,17.18-28.65,17.18-46.35,0-27.15-15.26-50.76-37.61-62.78l-.61,1.01c22.08,11.82,37.14,35.13,37.14,61.87,0,17.29-6.31,33.14-16.72,45.38.2.28.4.5.6.81-.2-.3-.4-.52-.6-.81-.02-.02-.03-.04-.05-.07-.33-.33-.65-.76-.98-1.09-.76-.76-1.53-1.42-2.4-2.07,0,0-.02-.02-.03-.02h0c9.66-11.41,15.5-26.13,15.5-42.24,0-.72,0-1.44-.04-2.16,0-.16,0-.33,0-.48-.02-.48-.04-.95-.08-1.43,0-.31-.03-.61-.07-.92,0-.02,0-.04,0-.07-.04-.64-.1-1.27-.17-1.92-.07-.66-.14-1.33-.24-1.99-.02-.21-.05-.4-.09-.6-.07-.49-.14-.98-.23-1.47-.03-.22-.08-.42-.11-.63-.12-.68-.25-1.34-.39-2,0-.03-.02-.07-.02-.11-.13-.61-.27-1.21-.42-1.82-.25-1.02-.52-2.04-.83-3.05-.12-.4-.24-.82-.38-1.22-.08-.26-.16-.52-.25-.78-.38-1.15-.8-2.29-1.23-3.41-.19-.45-.37-.89-.56-1.34-.02-.07-.05-.13-.09-.2-.15-.36-.31-.72-.47-1.08-.25-.58-.52-1.14-.8-1.72,0,0,0-.02-.02-.03-.32-.65-.64-1.31-.99-1.96-.28-.54-.58-1.09-.88-1.62-.11-.2-.22-.39-.33-.59-.32-.53-.63-1.07-.96-1.6-.38-.62-.77-1.24-1.18-1.84-.4-.61-.82-1.21-1.24-1.81-.68-.96-1.39-1.91-2.14-2.83-.25-.33-.51-.65-.78-.97-.66-.82-1.35-1.61-2.07-2.39-.25-.28-.51-.57-.77-.84-.36-.38-.72-.76-1.09-1.13-.1-.1-.2-.2-.29-.29-.46-.46-.93-.92-1.39-1.35-1.07-1.01-2.18-1.98-3.31-2.92-.5-.41-1-.82-1.51-1.2-.46-.36-.9-.71-1.37-1.03-.26-.21-.53-.4-.81-.59-.94-.68-1.9-1.32-2.86-1.92-.28-.2-.58-.37-.86-.54-.08-.05-.15-.1-.23-.14-1.06-.64-2.15-1.26-3.25-1.84l-.61,1.01c20.4,10.8,34.34,32.26,34.34,56.93,0,15.82-5.74,30.3-15.23,41.52,0,0-.02-.01-.02-.02-.02.02-.04.05-.06.07-.29-.18-.57-.35-.86-.52-.58-.37-1.19-.69-1.82-.98-.09-.04-.19-.08-.29-.13-.32-.15-.64-.28-.98-.41,0,0-.03-.01-.04-.02h-.02c-.24-.1-.48-.2-.73-.29-.02,0-.05-.02-.08-.02,9.26-10.46,14.89-24.18,14.89-39.19,0-.75,0-1.49-.04-2.23,0-.41-.03-.82-.05-1.22-.02-.26-.03-.52-.05-.8-.08-1.1-.19-2.19-.33-3.27-.05-.42-.11-.84-.17-1.26-.05-.36-.11-.71-.17-1.07-.05-.37-.12-.73-.2-1.1-.24-1.29-.52-2.55-.85-3.8-.12-.47-.24-.95-.38-1.41-.1-.36-.21-.72-.32-1.07-.46-1.5-.97-2.97-1.55-4.43-.09-.23-.19-.46-.28-.69-.15-.38-.32-.76-.48-1.13-.19-.44-.38-.87-.58-1.3-.12-.27-.25-.53-.37-.8-.02-.04-.04-.08-.05-.11-.2-.41-.4-.82-.61-1.21-.25-.49-.51-.98-.78-1.47-.28-.52-.58-1.05-.88-1.56-.31-.51-.61-1.02-.94-1.53-.32-.51-.64-1.01-.98-1.5,0-.03-.03-.07-.05-.09-.32-.47-.64-.94-.97-1.39-.4-.57-.83-1.13-1.26-1.69-.24-.31-.48-.61-.73-.92-.86-1.08-1.76-2.12-2.71-3.14-.34-.37-.69-.73-1.03-1.09,0,0-.02-.02-.02-.02-.41-.42-.84-.85-1.26-1.25-.41-.4-.83-.8-1.25-1.18-.03-.04-.07-.08-.11-.11-.42-.37-.85-.75-1.29-1.12-.46-.39-.92-.77-1.38-1.14-.46-.38-.94-.74-1.41-1.1-.47-.37-.96-.72-1.45-1.07-.49-.34-.98-.69-1.48-1.01l.87,1.78c14.88,10.54,24.6,27.89,24.53,47.38,0,14.98-5.7,28.64-15.03,38.94h-.04c.05-.05.1-.1.14-.15-.03,0-.06-.01-.09-.02l.09-.09c-1.86-.31-3.72-.51-5.67-.54h-.8c10.01-9.64,16.26-23.16,16.26-38.13,0-.46,0-.92-.02-1.36,0-.28,0-.56-.02-.83-.02-.4-.04-.81-.07-1.21-.02-.41-.05-.84-.1-1.25-.03-.47-.09-.95-.14-1.42,0-.08,0-.15-.02-.22-.04-.35-.09-.7-.14-1.05-.28-2.05-.69-4.06-1.2-6.02-.1-.38-.2-.75-.3-1.12-.11-.38-.22-.77-.34-1.15-.29-.94-.61-1.86-.95-2.77-.12-.34-.25-.66-.38-.99-.53-1.37-1.13-2.71-1.78-4.02-.21-.4-.4-.8-.61-1.19-.23-.44-.47-.86-.71-1.29-1.13-2.02-2.4-3.95-3.77-5.8-.17-.23-.34-.45-.51-.66-.2-.26-.4-.52-.62-.78-.29-.36-.59-.72-.89-1.08-.95-1.13-1.96-2.22-3.01-3.27-.34-.34-.68-.66-1.02-.99-.25-.24-.5-.48-.76-.71-.28-.26-.57-.51-.86-.76-.2-.17-.4-.35-.6-.51-.34-.29-.69-.58-1.03-.85-.01-.02-.02-.02-.03-.03-.15.03-.32.04-.48.04h-1.39c12.54,9.46,20.68,24.48,20.68,41.39,0,15.03-6.42,28.55-16.63,38.02h-9.01c12.06-8.33,19.98-22.26,19.98-38.02,0-.54,0-1.09-.03-1.63-.04-1.29-.14-2.55-.28-3.8-.03-.27-.07-.54-.11-.81-.03-.26-.07-.52-.11-.78-.07-.44-.14-.87-.22-1.31-.09-.51-.2-1.02-.3-1.53-.21-.96-.45-1.91-.72-2.83-.09-.35-.2-.7-.3-1.03-.11-.36-.23-.72-.35-1.08-.16-.49-.34-.97-.51-1.44s-.36-.94-.56-1.41c-.01-.01-.01-.03-.01-.04-.17-.39-.34-.8-.52-1.18-.2-.45-.4-.88-.61-1.32-.14-.28-.27-.56-.41-.83-.23-.45-.46-.88-.71-1.32-.2-.36-.39-.72-.61-1.07-.25-.45-.52-.88-.8-1.31-.04-.07-.08-.12-.11-.17-.26-.4-.53-.81-.81-1.21-.25-.37-.51-.74-.78-1.11-.4-.54-.81-1.09-1.24-1.61-.27-.36-.57-.71-.86-1.06-.58-.69-1.18-1.35-1.79-1.98-.22-.23-.45-.46-.66-.69-.36-.36-.72-.71-1.08-1.05-.28-.27-.58-.54-.87-.81-.75-.68-1.53-1.32-2.31-1.94-.28-.23-.58-.46-.88-.68-.27-.21-.54-.4-.83-.6-.81-.59-1.63-1.14-2.48-1.67-.29-.19-.59-.37-.89-.53-.65-.39-1.33-.76-2-1.12-.37-.2-.75-.39-1.13-.58h-2.66c16.12,6.88,27.47,22.91,27.47,41.5,0,15.95-8.36,30-20.92,38.02h-5.23v9.59h-3.59v-9.59h-8.3c17.99-3.32,31.62-19.07,31.62-38.02,0-21.36-17.31-38.67-38.67-38.67s-38.67,17.31-38.67,38.67c0,18.95,13.63,34.7,31.62,38.02h-8.09v9.59h-3.7v-9.59h-5.34c-12.56-8.02-20.92-22.07-20.92-38.02,0-18.97,11.82-35.26,28.46-41.91-.29-.24-.53-.56-.7-.92,0,0-.01,0-.01,0-.52.21-1.05.42-1.56.66-.03,0-.07.03-.1.04-.44.2-.87.39-1.3.6-.63.32-1.26.64-1.88.99-.39.21-.77.42-1.15.65-.07.04-.14.08-.21.12-.31.17-.6.36-.89.56-.62.38-1.24.78-1.84,1.21-.37.25-.72.5-1.08.77-.59.42-1.17.87-1.73,1.33-.34.28-.68.56-1,.85-.11.09-.23.19-.34.28-.33.28-.64.57-.96.86-.74.7-1.47,1.41-2.17,2.16-.22.22-.42.45-.62.66-.53.59-1.06,1.2-1.58,1.82-.2.24-.39.49-.58.73-.33.41-.64.83-.95,1.25-.28.38-.56.76-.83,1.15-.27.4-.54.81-.81,1.22-.04.07-.08.13-.12.2-.28.45-.57.89-.83,1.35-.35.6-.7,1.21-1.01,1.83-.23.41-.44.83-.64,1.25-.21.41-.4.83-.59,1.25-.04.1-.09.2-.13.29-.24.52-.46,1.05-.66,1.57-.22.53-.41,1.07-.61,1.61-.17.48-.34.98-.49,1.47-.04.11-.08.22-.11.33-.15.48-.29.96-.42,1.45-.1.34-.19.68-.26,1.02-.08.27-.14.56-.21.83-.03.14-.07.29-.1.44-.09.38-.16.76-.24,1.14-.09.46-.17.93-.25,1.39-.1.58-.17,1.17-.25,1.75-.03.24-.05.48-.08.72,0,.09-.02.17-.03.26-.08.77-.14,1.56-.17,2.34,0,.04,0,.08,0,.12,0,.23-.02.46-.02.69-.02.52-.03,1.05-.03,1.57,0,15.76,7.92,29.68,19.98,38.02h-9.01c-10.23-9.49-16.63-23.03-16.63-38.02,0-16.7,7.92-31.55,20.17-41.02-.54-.04-1.08-.13-1.58-.25-.8.64-1.57,1.31-2.32,1.99-.63.57-1.24,1.15-1.84,1.75l-.21.21c-.32.32-.62.64-.93.96-.22.23-.42.46-.64.7-.26.29-.53.59-.78.89-1.96,2.25-3.74,4.67-5.28,7.23-.23.36-.45.73-.65,1.1-.19.3-.36.62-.53.94-.28.52-.57,1.06-.84,1.59-.14.28-.28.58-.42.87-.19.38-.37.77-.54,1.17-.36.77-.69,1.57-1,2.37-.14.35-.28.71-.41,1.08-.03.07-.05.13-.08.21-.14.37-.27.76-.4,1.14-.14.4-.27.82-.4,1.22v.02c-.13.41-.25.83-.37,1.24s-.24.84-.35,1.26c-.22.84-.41,1.7-.59,2.56-.09.42-.17.86-.25,1.3s-.15.87-.22,1.31c-.07.42-.12.85-.17,1.27,0,.02,0,.04,0,.08-.05.39-.1.78-.14,1.18,0,.09,0,.17-.02.26-.03.34-.07.68-.09,1.01-.04.41-.07.83-.09,1.25-.02.28-.03.56-.04.84,0,.26-.02.52-.02.8,0,.45-.02.9-.02,1.36,0,14.97,6.25,28.49,16.26,38.13h-.47c-2.02,0-4.05.32-5.87.84-.04.01-.08.02-.12.03-.22.05-.41.11-.59.16s-.34.11-.5.16h0c-.43.14-.85.29-1.26.46-1.21.51-2.34,1.17-3.46,1.89-.02-.02-.04-.05-.06-.07-.03.02-.06.04-.09.07-9.52-11.22-15.27-25.73-15.27-41.57,0-20.22,9.36-38.28,23.97-50.09v-.57c0-.38.08-.76.25-1.12-.48.37-.96.75-1.43,1.14-1.06.86-2.07,1.75-3.06,2.69-.33.3-.65.61-.98.94-.03.02-.07.05-.1.1-.37.35-.75.73-1.11,1.11-.08.05-.13.12-.2.19-.25.26-.5.53-.75.8-.23.24-.46.48-.68.73-.77.85-1.53,1.72-2.27,2.63-.35.42-.69.86-1.02,1.3-.27.34-.53.7-.8,1.05-.21.27-.4.53-.6.81-.2.27-.39.56-.59.84-2.02,2.9-3.81,5.96-5.36,9.18-.2.42-.39.85-.59,1.29-.21.45-.4.89-.6,1.35-.74,1.74-1.41,3.53-1.99,5.35-.13.39-.26.78-.37,1.18-.05.16-.11.33-.14.49-.13.4-.25.82-.36,1.23-.04.14-.08.27-.11.41-.11.39-.22.78-.31,1.19-.08.29-.15.59-.21.88-.4,1.72-.74,3.46-1,5.24-.09.6-.16,1.2-.24,1.81v.05c-.08.56-.13,1.1-.17,1.67-.02.16-.03.34-.04.51-.04.41-.08.84-.1,1.27-.01.16-.02.33-.03.5-.03.6-.07,1.2-.08,1.8-.02.65-.03,1.31-.03,1.96,0,16.13,5.86,30.88,15.54,42.29-1.29.97-2.37,1.94-3.34,3.13.02.02.03.04.05.05-.02.02-.03.04-.05.05-.02.02-.04.04-.06.07-.21.22-.49.51-.59.81.1-.29.37-.59.59-.81-10.47-12.26-16.82-28.15-16.82-45.49,0-23.75,11.87-44.79,30-57.48-.11-.41-.17-.85-.21-1.3-18.65,12.88-30.88,34.39-30.88,58.67,0,17.74,6.54,33.96,17.3,46.44h0c-.97,1.19-1.83,2.59-2.48,3.99,0,0,0,.02-.01.03-12.04-13.42-19.38-31.15-19.38-50.57-.12-41.75,33.87-75.73,75.7-75.73s75.82,33.99,75.82,75.82c0,19.35-7.28,37.01-19.24,50.42h0ZM119.3,83.68v-.54h1.53v.54l-.65,2.72h-.54l.76-2.72h-1.1ZM49.48,83.68v-.54h1.53v.54l-.65,2.72h-.54l.76-2.72h-1.1Z"/><path d="M64.22,17.24c.05-.01.12-.01.17-.01h4.44c5.15-1.21,10.52-1.85,16.04-1.85s10.71.62,15.78,1.79h.01c.17-.03.35-.04.54-.04h3.92c-6.43-1.92-13.22-2.94-20.26-2.94s-14.12,1.07-20.65,3.06h.01Z"/><path d="M44.71,33.75h0c.13-.1.26-.2.39-.29-.13.1-.26.2-.39.29Z"/><path d="M26.82,85.42c0-17.47,7.75-33.16,19.99-43.81-.23-.23-.45-.48-.64-.74-.34.31-.68.61-1.01.92-.3.27-.6.54-.89.83-.39.37-.78.75-1.17,1.13-.32.32-.64.64-.95.97-.35.36-.69.72-1.01,1.09-.24.26-.48.53-.73.81-.39.46-.8.92-1.18,1.39-.26.32-.52.63-.77.95-.58.73-1.13,1.48-1.68,2.23-.19.25-.36.51-.53.76-.72,1.02-1.39,2.07-2.04,3.14-.27.45-.53.9-.78,1.35-.26.46-.51.92-.75,1.37-.25.46-.49.93-.72,1.38-.24.47-.47.95-.69,1.42-.22.47-.44.95-.64,1.43-.22.49-.41.97-.61,1.46-.2.46-.37.93-.54,1.39-.22.57-.42,1.13-.62,1.71-.26.78-.51,1.58-.74,2.37-.46,1.55-.85,3.13-1.18,4.73-.08.32-.13.64-.19.96-.07.32-.12.63-.17.96-.07.38-.13.76-.19,1.14-.05.35-.1.69-.14,1.03-.05.38-.11.77-.14,1.15-.05.45-.1.89-.13,1.35-.04.34-.07.68-.09,1.01-.03.39-.05.78-.08,1.18-.05,1.01-.08,2.03-.08,3.04,0,15.02,5.64,28.77,14.91,39.22h0c.16-.05.33-.11.5-.16s.37-.11.59-.16c.04-.01.09-.02.12-.03-9.35-10.31-15.04-23.98-15.04-38.97Z"/><path d="M97.3,41.04c-.29-.09-.59-.16-.88-.24-.47-.12-.94-.24-1.41-.34-.58-.13-1.17-.25-1.75-.36-.07,0-.14-.03-.21-.04-.53-.09-1.09-.17-1.63-.25-.03,0-.08-.02-.11-.02v1.1c2.63.38,5.17.98,7.63,1.8-.2-.36-.33-.8-.33-1.26-.44-.14-.87-.26-1.31-.38h0Z"/><path d="M68.97,154.92c.22,1.09.87,1.53,1.96,1.53.76,0,1.31-.22,1.63-.76.01-.03.02-.07.03-.1.09-.28.19-.58.28-.95,0-.02,0-.03.01-.04.11-.33.11-.76.11-1.2v-10.89c-.02-.1-.06-.17-.09-.26-.27-.88-.88-1.26-1.87-1.26-.63,0-1.1.16-1.44.46-.07.06-.14.12-.2.2-.2.2-.3.5-.4.87-.01.04-.02.07-.03.11-.11.33-.11.76-.11,1.2v10.02c0,.4,0,.71.09,1.01,0,.02,0,.05.01.07h.02Z"/><path d="M127.91,142.18c-.2-.3-.5-.49-.88-.61-.04,0-.06-.03-.1-.04-.33-.11-.76-.11-1.2-.11h-1.31v6.1h1.31c1.96,0,2.61-.76,2.61-3.05,0-1.09-.11-1.74-.43-2.28h0Z"/><polygon points="107.97 145.55 107.95 145.62 107.65 146.75 107.63 146.81 106.67 151.44 108.92 151.44 109.28 151.44 109.28 151.3 109.28 146.16 109.28 145.1 109.28 141.31 108.95 141.31 107.97 145.55"/><path d="M82.7,127.47c0-.65-.22-.98-.76-.98s-.76.33-.76.98v.65c0,.65.22.87.76.87s.76-.33.76-.98c0,0,0-.54,0-.54Z"/><path d="M87.49,131.61s.03.02.05.03c.09.07.19.08.28.08.22,0,.33,0,.44-.11.01,0,.02-.02.03-.03.18-.13.19-.43.19-.84v-.65c.11-.54-.11-.87-.54-.87-.29,0-.48.1-.6.28-.18.16-.27.42-.27.81v.44c.11.44.22.76.44.87h-.02Z"/><path d="M126.71,86.51h.11c.65,0,.87-.33.87-.87v-.33c0-.65-.22-.87-.65-.87-.33,0-.54.22-.54.54v-.87c0-.33.11-.44.33-.44s.33.11.33.44v.11h.44v-.11c0-.65-.22-.98-.76-.98-.65,0-.87.33-.87.98v1.42c0,.65.33.98.76.98h-.02ZM126.49,85.42c0-.33.11-.44.33-.44s.33.11.33.44v.22c0,.33-.11.44-.33.44s-.33-.11-.33-.44v-.22Z"/><path d="M43.27,83.14c-.65,0-.87.33-.87.98v1.42c0,.65.22.98.65.98h.11c.65,0,.87-.33.87-.87v-.33c0-.65-.22-.87-.65-.87-.33,0-.54.22-.54.54v-.87c0-.33.11-.44.33-.44s.33.11.33.44v.11h.54v-.11c0-.65-.22-.98-.76-.98h-.01ZM42.94,85.42c0-.33.11-.44.33-.44s.33.11.33.44v.22c0,.33-.11.44-.33.44s-.33-.11-.33-.44v-.22Z"/><path d="M36.19,84.44c-.33,0-.44.11-.54.33v-.87h1.09v-.54h-1.63v1.74h.54c.11-.11.11-.22.33-.22s.33.11.33.44v.33c0,.33-.11.44-.33.44s-.33-.11-.33-.44v-.22h-.54v.11c0,.65.22.98.76,1.2h.11c.65,0,.87-.33.87-.98v-.44c0-.65-.22-.87-.65-.87h0Z"/><path d="M134.01,86.73h.11c.65,0,.87-.33.87-.98v-.44c0-.65-.22-.87-.65-.87-.33,0-.44.11-.54.33v-.87h1.09v-.54h-1.63v1.74h.54c.11-.11.11-.22.33-.22s.33.11.33.44v.33c0,.33-.11.44-.33.44s-.33-.11-.33-.44v-.22h-.54v.11c0,.65.22.98.76,1.2h0Z"/><path d="M140.43,86.4h.54v-.65h.33v-.44h-.33v-2.07h-.76l-.76,2.07v.44h.98v.65ZM140,85.31l.54-1.31v1.31h-.54Z"/><path d="M30.19,83.24h-.76l-.76,2.07v.44h.98v.65h.54v-.65h.33v-.44h-.33v-2.07ZM29.65,85.31h-.54l.54-1.31v1.31Z"/><path d="M23.11,83.14c-.54,0-.76.33-.76.98v.11h.54v-.22c0-.22.11-.33.33-.33s.33.11.33.33v.22c0,.22-.11.33-.33.33h-.33v.54h.33c.22,0,.33.22.33.44v.11c0,.33-.11.44-.33.44s-.33-.11-.33-.44v-.22h-.54v.22c0,.54.33.87.54.87h.11c.54,0,.87-.22.87-.87v-.11c0-.44-.11-.65-.44-.76.33-.11.44-.33.44-.65v-.11c0-.54-.22-.87-.76-.87h0Z"/><path d="M146.71,86.5c.5-.02.81-.24.81-.86v-.11c0-.44-.11-.65-.44-.76.33-.11.44-.33.44-.65v-.11c0-.54-.22-.87-.76-.87s-.76.33-.76.98v.11h.54v-.22c0-.22.11-.33.33-.33s.33.11.33.33v.22c0,.22-.11.33-.33.33h-.33v.54h.33c.22,0,.33.22.33.44v.11c0,.33-.11.44-.33.44s-.33-.11-.33-.44v-.22h-.54v.22c0,.53.21.84.72.86h-.01Z"/><path d="M153.29,85.97h-.98c.54-.65.98-1.09.98-1.85,0-.54-.22-.87-.76-.87s-.76.33-.76.98v.11h.54v-.22c0-.33.11-.44.33-.44s.33.11.33.44c0,.54-.22.76-1.09,1.96h-.22v.44h1.63v-.54h0Z"/><path d="M17.88,84.12c0-.54-.22-.87-.76-.87s-.76.33-.76.98v.11h.54v-.22c0-.33.11-.44.33-.44s.33.11.33.44c0,.54-.22.76-1.09,1.96h.11v.44h1.63v-.54h-1.31c.54-.65.98-1.09.98-1.85h0Z"/><polygon points="11.78 83.35 11.35 83.35 10.8 83.46 10.8 83.9 11.24 83.79 11.24 85.97 10.8 85.97 10.8 86.51 12.11 86.51 12.11 86.08 11.78 86.08 11.78 83.35"/><polygon points="158.74 83.35 158.3 83.35 157.76 83.46 157.76 83.9 158.19 83.79 158.19 85.97 157.76 85.97 157.76 86.51 159.06 86.51 159.06 86.08 158.74 86.08 158.74 83.35"/><path d="M84.66,113.31v.22c0,.22.11.33.33.33s.33,0,.33-.33v-.22c0-.22-.11-.33-.33-.33s-.33.11-.33.33Z"/><path d="M57.86,84.55c.22.11.33-.11.33-.33v-.22c0-.22-.11-.33-.33-.33s-.33.11-.33.33v.22c0,.22.11.33.33.33Z"/><path d="M84.88,111.57c-.22,0-.33.11-.33.33v.22c0,.22.11.33.33.33.33.11.33-.11.33-.33v-.22c0-.22-.11-.33-.33-.33Z"/><path d="M84.88,57.75c.33,0,.33-.11.33-.33v-.22c0-.22-.11-.33-.33-.33s-.33.11-.33.33v.22c0,.22.11.33.33.33Z"/><path d="M57.86,85.97c.22,0,.33,0,.33-.33v-.22c0-.22-.11-.33-.33-.33s-.33.11-.33.33v.22c0,.22.11.33.33.33Z"/><path d="M84.66,58.63v.22c0,.22.11.33.33.33s.33,0,.33-.33v-.22c0-.22-.11-.33-.33-.33s-.33.11-.33.33Z"/><path d="M112.11,84.55c.22.11.33-.11.33-.33v-.22c0-.22-.11-.33-.33-.33s-.33.11-.33.33v.22c0,.22.11.33.33.33Z"/><path d="M84.88,64.62c-.22,0-.33.11-.33.44v.22c0,.33.11.44.33.44.33,0,.33-.11.33-.44v-.22c0-.33-.11-.44-.33-.44Z"/><path d="M84.88,103.94c-.22,0-.33.11-.33.44v.22c0,.33.11.44.33.44.33,0,.33-.11.33-.44v-.22c0-.33-.11-.44-.33-.44Z"/><path d="M84.88,94.03c4.68,0,8.5-3.81,8.5-8.5s-3.81-8.5-8.5-8.5-8.5,3.81-8.5,8.5,3.81,8.5,8.5,8.5Z" stroke="#fff" stroke-miterlimit="10" stroke-width=".75"/><path d="M104.6,83.68c-.22,0-.33.11-.33.44v.22c0,.33.11.44.33.44s.33-.11.33-.44v-.22c0-.33-.11-.44-.33-.44Z"/><path d="M84.88,108.84c12.85,0,23.31-10.46,23.31-23.31s-10.46-23.31-23.31-23.31-23.31,10.46-23.31,23.31,10.46,23.31,23.31,23.31ZM104.7,86.08c.22,0,.33-.11.33-.44v-.87c0,.33-.22.54-.54.54-.44,0-.65-.22-.65-.87v-.33c0-.54.33-.87.87-.87h.11c.54,0,.87.33.87.98v1.42c0,.65-.22.98-.87.98h-.11c-.65-.11-.87-.44-.87-1.09l.54-.11v.22c0,.33.11.44.33.44h-.01ZM84.88,69.63c8.71,0,15.9,7.19,15.9,15.9s-7.08,15.9-15.9,15.9-15.9-7.19-15.9-15.9,7.19-15.9,15.9-15.9ZM66.69,85.64c0,.65-.22.98-.87.98h-.11c-.65-.11-.87-.44-.87-1.09l.54-.11v.22c0,.33.11.44.33.44s.33-.11.33-.44v-.87c0,.33-.22.54-.54.54-.44,0-.65-.22-.65-.87v-.33c0-.54.22-.87.87-.87h.11c.54,0,.87.33.87.98v1.42h-.01Z"/><path d="M84.88,100.78c8.5,0,15.36-6.86,15.36-15.36s-6.86-15.36-15.36-15.36-15.36,6.86-15.36,15.36,6.86,15.36,15.36,15.36ZM84.88,76.82c4.79,0,8.71,3.92,8.71,8.71.11,4.79-3.81,8.71-8.71,8.71s-8.71-3.92-8.71-8.71,3.92-8.71,8.71-8.71Z"/><path d="M65.71,83.68c-.22,0-.33.11-.33.44v.22c0,.33.11.44.33.44s.33-.11.33-.44v-.22c0-.33-.11-.44-.33-.44Z"/><path d="M112.11,85.97c.33.11.33,0,.33-.33v-.22c0-.22-.11-.33-.33-.33s-.33.11-.33.33v.22c0,.22.11.33.33.33Z"/><path d="M84.88,116.14c16.88,0,30.61-13.73,30.61-30.61s-13.73-30.72-30.61-30.72-30.61,13.73-30.61,30.61,13.73,30.72,30.61,30.72ZM111.35,85.53c0-.33.22-.65.44-.65-.22-.11-.44-.33-.44-.76v-.11c0-.54.33-.87.76-.87.54,0,.76.33.76.87v.11c0,.33-.11.65-.44.65.33.11.44.33.44.65v.22c0,.54-.33.87-.87.87h-.11c-.33,0-.54-.22-.54-.87v-.11ZM84.88,61.68c13.07,0,23.86,10.68,23.86,23.86s-10.68,23.75-23.86,23.75-23.86-10.68-23.86-23.86,10.78-23.75,23.86-23.75ZM57.1,84.12v-.11c0-.54.33-.87.76-.87.54,0,.76.33.76.87v.11c0,.33-.11.65-.44.65.33.11.44.33.44.65v.22c0,.54-.33.87-.87.87h-.11c-.33,0-.54-.22-.54-.87v-.11c0-.33.22-.65.44-.65-.22-.11-.44-.33-.44-.76Z"/><path d="M100.78,41.85c-.11-.11-.11-.22-.11-.33v-21.57c0-.11,0-.22.11-.33s.22-.11.33-.11h5.12c.11,0,.22,0,.33.11s.11.22.11.33v7.08c0,.11,0,.22.11.22,0,0,.11,0,.11-.11l4.14-7.3c.11-.22.33-.33.54-.33h5.56c.33,0,.44.11.44.33,0,.11,0,.22-.11.33l-5.66,9.37v.22l5.77,11.76.11.22c0,.22-.11.33-.44.33h-5.56c-.22,0-.44-.11-.54-.33l-3.49-7.3c0-.11-.11-.11-.11-.11,0,0-.11,0-.11.11l-.76,1.42c0,.11-.11.22-.11.22v5.56c0,.11,0,.22-.11.33s-.22.11-.33.11h-5.12l-.22-.22h0Z"/><path d="M95.66,20.39c1.09.65,1.96,1.53,2.51,2.61.65,1.09.87,2.4.87,3.81s-.33,2.61-.87,3.7-1.42,1.85-2.51,2.51c-1.09.54-2.29.87-3.7.87h-2.61c-.11,0-.22.11-.22.22v7.52c0,.11,0,.22-.11.33s-.22.11-.33.11h-5.12c-.11,0-.22,0-.33-.11s-.11-.22-.11-.33v-21.68c0-.11,0-.22.11-.33s.22-.11.33-.11h8.39c1.42-.11,2.61.22,3.7.87h0ZM92.4,28.56c.44-.44.54-.98.54-1.63,0-.76-.22-1.31-.54-1.63-.44-.44-.87-.54-1.53-.54h-1.53c-.11,0-.22.11-.22.22v4.14c0,.11.11.22.22.22h1.53c.65-.22,1.2-.44,1.53-.76v-.02Z"/><path d="M50.46,41.41c-1.2-.54-2.07-1.31-2.72-2.29s-.98-2.18-.98-3.49v-.76c0-.11,0-.22.11-.33s.22-.11.33-.11h5.01c.11,0,.22,0,.33.11s.11.22.11.33v.44c0,.44.22.87.54,1.2.44.33.87.54,1.53.54.54,0,.98-.11,1.2-.44.22-.22.33-.54.33-.98s-.22-.76-.54-.98-1.09-.65-2.07-1.09l-.54-.33c-1.2-.54-2.29-1.2-3.16-1.74s-1.63-1.31-2.29-2.29-.98-2.07-.98-3.49c0-1.31.33-2.51.98-3.49s1.53-1.74,2.72-2.29,2.51-.87,3.92-.87c1.53,0,2.94.33,4.14.87s2.18,1.42,2.83,2.51.98,2.29.98,3.59v.54c0,.11,0,.22-.11.33s-.22.11-.33.11h-5.01c-.11,0-.22,0-.33-.11s-.11-.22-.11-.33v-.44c0-.44-.22-.87-.54-1.31-.44-.33-.87-.54-1.53-.54-.44,0-.87.11-1.09.33-.33.22-.44.54-.44.98s.22.87.76,1.31c.44.33,1.42.87,2.83,1.53l.98.54c1.09.65,2.07,1.2,2.72,1.63.65.54,1.31,1.09,1.74,1.96.44.76.76,1.74.76,2.83,0,1.31-.33,2.51-.98,3.59-.65.98-1.53,1.74-2.72,2.29s-2.51.87-4.14.87c-1.74.11-3.16-.22-4.25-.76v.03Z"/><path d="M69.3,41.63l-5.45-21.68v-.11c0-.22.11-.44.44-.44h5.56c.33,0,.44.11.54.44l2.29,12.53c0,.11.11.11.11.11,0,0,.11,0,.11-.11l2.18-12.53c.11-.33.22-.44.54-.44h5.34c.22,0,.33,0,.33.11.11.11.11.22,0,.44l-5.34,21.68c0,.22-.22.44-.54.44h-5.56c-.22,0-.44-.22-.54-.44h-.01Z"/><path d="M210.92,83.08v-3.09h11.56v4.08c0,7.17,1.89,9.27,6.28,9.27,4.88,0,5.88-2.09,5.88-8.37,0-6.77-1.1-7.77-9.66-13.15-8.77-5.48-13.85-9.36-13.85-21.12s5.78-18.03,17.04-18.03h.8c11.66,0,16.94,7.27,16.94,20.12v2.49h-11.56v-3.29c0-7.37-1.79-9.66-6.18-9.66-4.08,0-5.88,1.99-5.88,7.37,0,6.38,2.59,8.17,9.66,12.75,9.56,5.88,14.05,8.87,14.05,21.52s-4.88,19.23-16.94,19.23h-1.2c-11.96,0-16.94-6.58-16.94-20.12Z" fill="#fff"/><path d="M248.98,34.06h11.66l7.87,56.09h.5l7.67-56.09h10.96l-10.36,67.94h-17.73l-10.56-67.94Z" fill="#fff"/><path d="M292.21,82.38v-28.89c0-14.05,5.98-20.82,17.93-20.82h.8c11.95,0,17.93,6.77,17.93,20.82v28.89c0,13.75-5.38,20.82-17.73,20.82h-1.2c-12.25,0-17.73-7.07-17.73-20.82ZM317.32,83.38v-31.28c0-6.87-1.99-9.46-6.78-9.46s-6.77,2.59-6.77,9.46v31.28c0,6.77,1.99,9.66,6.77,9.66s6.78-2.89,6.78-9.66Z" fill="#fff"/><path d="M350.09,90.85h19.92v10.96h-31.48V34.06h11.56v56.79Z" fill="#fff"/><path d="M366.83,34.06h11.66l7.87,56.09h.5l7.67-56.09h10.96l-10.36,67.94h-17.73l-10.56-67.94Z" fill="#fff"/><path d="M436.77,44.82v17.14h13.75v10.76h-13.75v18.23h15.84v10.86h-26.9v-14.94h-10.66l-3.59,14.94h-10.86l17.14-67.74h34.87v10.76h-15.84ZM425.71,76.9v-32.48h-1l-7.37,32.48h8.37Z" fill="#fff"/><path d="M485.29,101.81l-7.17-26.9h-5.78v26.9h-11.46V34.06h16.04c13.95,0,19.83,6.67,19.83,20.12.1,9.66-2.79,15.14-7.67,18.33l8.07,29.29h-11.85ZM476.42,64.45c6.38,0,8.57-2.59,8.57-9.86s-2.19-9.96-8.57-9.96h-4.08v19.83h4.08Z" fill="#fff"/><path d="M213.41,120.06h16.14c13.95,0,19.83,6.38,19.83,21.22s-6.08,21.52-20.52,21.52h-3.88v25.01h-11.56v-67.75ZM228.75,152.54c6.48,0,8.87-2.99,8.87-11.06s-2.39-10.76-8.87-10.76h-3.79v21.82h3.79Z" fill="#fff"/><path d="M267.9,187.81h-11.56v-67.75h11.56v67.75Z" fill="#fff"/><path d="M275.87,169.08v-3.09h11.56v4.08c0,7.17,1.89,9.27,6.28,9.27,4.88,0,5.88-2.09,5.88-8.37,0-6.77-1.1-7.77-9.66-13.15-8.77-5.48-13.85-9.36-13.85-21.12s5.78-18.03,17.04-18.03h.8c11.66,0,16.94,7.27,16.94,20.12v2.49h-11.56v-3.29c0-7.37-1.79-9.66-6.18-9.66-4.08,0-5.88,1.99-5.88,7.37,0,6.38,2.59,8.17,9.66,12.75,9.56,5.88,14.05,8.87,14.05,21.52s-4.88,19.23-16.94,19.23h-1.2c-11.96,0-16.94-6.58-16.94-20.12Z" fill="#fff"/><path d="M327.18,130.92h-11.96v-10.86h35.37v10.86h-11.86v56.89h-11.56v-56.89Z" fill="#fff"/><path d="M356.47,168.38v-28.89c0-14.05,5.98-20.82,17.93-20.82h.8c11.95,0,17.93,6.77,17.93,20.82v28.89c0,13.75-5.38,20.82-17.73,20.82h-1.2c-12.25,0-17.73-7.07-17.73-20.82ZM381.57,169.38v-31.28c0-6.87-1.99-9.46-6.78-9.46s-6.77,2.59-6.77,9.46v31.28c0,6.77,1.99,9.66,6.77,9.66s6.78-2.89,6.78-9.66Z" fill="#fff"/><path d="M414.35,176.85h19.92v10.96h-31.48v-67.75h11.56v56.79Z" fill="#fff"/><path d="M478.61,187.81h-12.65l-13.65-31.08v31.08h-11.66v-67.75h11.66v28.79h.1l13.55-28.79h12.05l-15.24,31.78,15.84,35.96Z" fill="#fff"/><path d="M496.14,176.85h19.92v10.96h-31.48v-67.75h11.56v56.79Z" fill="#fff"/><path d="M521.84,168.38v-48.32h11.56v49.41c0,6.77,2.09,9.66,6.88,9.66s6.67-2.89,6.67-9.66v-49.41h10.86v48.42c0,13.65-5.08,20.72-17.13,20.72h-1.2c-12.25,0-17.63-7.07-17.63-20.82Z" fill="#fff"/><path d="M567.77,120.06h15.14c13.45,0,19.73,6.28,19.73,17.83-.1,9.46-3.69,13.45-10.16,14.94v.4c8.07,1.49,11.06,6.87,11.06,15.94,0,12.75-6.18,18.63-19.23,18.63h-16.54v-67.75ZM582.91,148.36c5.68,0,8.47-2.89,8.47-8.97s-2.39-8.87-8.87-8.87h-3.39v17.83h3.79ZM583.21,177.25c6.38,0,8.77-2.49,8.77-9.56s-2.39-9.37-9.17-9.37h-3.69v18.93h4.08Z" fill="#fff"/><path d="M612,120.06h15.14c13.45,0,19.73,6.28,19.73,17.83-.1,9.46-3.69,13.45-10.16,14.94v.4c8.07,1.49,11.06,6.87,11.06,15.94,0,12.75-6.18,18.63-19.23,18.63h-16.54v-67.75ZM627.14,148.36c5.68,0,8.47-2.89,8.47-8.97s-2.39-8.87-8.87-8.87h-3.39v17.83h3.79ZM627.44,177.25c6.38,0,8.77-2.49,8.77-9.56s-2.39-9.37-9.17-9.37h-3.69v18.93h4.08Z" fill="#fff"/></svg>